<svg xmlns="http://www.w3.org/2000/svg" xmlns:xlink="http://www.w3.org/1999/xlink" viewBox="0 0 198.08 188"><defs><style>.cls-1{fill:none;clip-rule:evenodd;}.cls-2{clip-path:url(#clip-path);}.cls-3{fill:url(#Gradiente_sem_nome_3);}</style><clipPath id="clip-path"><path class="cls-1" d="M41.06,39.53l.66,103.83L2.05,188V41.23a26.8,26.8,0,0,0,18.5,7.07,28.43,28.43,0,0,0,20.24-8.77ZM20.55,0A20.55,20.55,0,1,1,0,20.55,20.55,20.55,0,0,1,20.55,0ZM51.91,149.84h37q51.18-3.32,56.83-48.73,2-28.31-17.89-44.73Q111.63,44,87.36,43.27H55.26V5.77h46v.08Q143.53,8.93,169.59,44c28.49,45.16,20,104.15-28.34,130.7q-22.18,11.64-44.94,12.61v.07H94.18c-1.34,0-2.69,0-4,0H19.65Z"/></clipPath><linearGradient id="Gradiente_sem_nome_3" x1="31.03" y1="164.19" x2="161.14" y2="29.9" gradientUnits="userSpaceOnUse"><stop offset="0" stop-color="#50148f"/><stop offset="0.49" stop-color="#463ca2"/><stop offset="1" stop-color="#25c3e3"/></linearGradient></defs><g id="Camada_2" data-name="Camada 2"><g id="Camada_1-2" data-name="Camada 1"><g class="cls-2"><rect class="cls-3" width="198.08" height="188"/></g></g></g></svg>