<?xml version="1.0" encoding="utf-8"?>
<!-- Generator: Adobe Illustrator 26.0.1, SVG Export Plug-In . SVG Version: 6.00 Build 0)  -->
<svg version="1.1" id="Camada_1" xmlns="http://www.w3.org/2000/svg" xmlns:xlink="http://www.w3.org/1999/xlink" x="0px" y="0px"
	 viewBox="0 0 183.9 34.9" style="enable-background:new 0 0 183.9 34.9;" xml:space="preserve">
<style type="text/css">
	
		.st0{clip-path:url(#SVGID_00000072964334577725827620000001275629409332503428_);fill:url(#SVGID_00000165229827700658633480000007761892517097561737_);}
	.st1{fill:#FFFFFF;}
</style>
<g>
	<g>
		<defs>
			<path id="SVGID_1_" d="M7.6,7.3l0.1,19.3l-7.4,8.3V7.7C1.3,8.5,2.4,9,3.8,9C5.2,9,6.6,8.3,7.6,7.3L7.6,7.3z M3.8,0
				c2.1,0,3.8,1.7,3.8,3.8c0,2.1-1.7,3.8-3.8,3.8S0,5.9,0,3.8C0,1.7,1.7,0,3.8,0z M9.6,27.8h6.9c6.3-0.4,9.8-3.4,10.5-9
				c0.2-3.5-0.9-6.3-3.3-8.3c-2-1.5-4.5-2.3-7.5-2.4h-6v-7h8.3h0.2v0c5.2,0.4,9.4,2.7,12.7,7.1c5.3,8.4,3.7,19.3-5.3,24.2
				c-2.7,1.4-5.5,2.2-8.3,2.3v0h-0.4c-0.2,0-0.5,0-0.8,0H3.6L9.6,27.8z"/>
		</defs>
		<clipPath id="SVGID_00000088091995562627626670000008229782483906905014_">
			<use xlink:href="#SVGID_1_"  style="overflow:visible;"/>
		</clipPath>
		
			<linearGradient id="SVGID_00000077289976345607995160000000638907126918311861_" gradientUnits="userSpaceOnUse" x1="5.7586" y1="30.4721" x2="29.8913" y2="5.5595">
			<stop  offset="0" style="stop-color:#50148F"/>
			<stop  offset="0.49" style="stop-color:#463CA2"/>
			<stop  offset="1" style="stop-color:#25C3E3"/>
		</linearGradient>
		
			<rect y="0" style="clip-path:url(#SVGID_00000088091995562627626670000008229782483906905014_);fill:url(#SVGID_00000077289976345607995160000000638907126918311861_);" width="36.7" height="34.9"/>
	</g>
	<path class="st1" d="M115.2,15.8c-1.4,0-2.5,0.4-3.3,1.3c-0.8,0.9-1.4,2.1-1.7,3.7h9.2v-0.1c0-1.7-0.4-2.9-1.1-3.7
		C117.5,16.2,116.5,15.8,115.2,15.8 M124.6,21.3c0,1,0,2.1-0.1,3.3H110c0.1,2.1,0.7,3.7,1.8,4.7c1.1,1,2.4,1.5,4.1,1.5
		c1.2,0,2.2-0.2,3.2-0.5c0.9-0.3,2-0.8,3.2-1.5l1.8,3.4c-1.2,0.8-2.5,1.5-3.9,1.9c-1.4,0.5-3,0.7-4.7,0.7c-2.1,0-3.9-0.4-5.5-1.1
		c-1.6-0.7-2.9-1.9-3.8-3.6c-0.9-1.7-1.4-3.8-1.4-6.4c0-2.3,0.4-4.3,1.2-6.1c0.8-1.8,2-3.2,3.6-4.2c1.6-1,3.5-1.5,5.7-1.5
		c2,0,3.7,0.4,5.1,1.2c1.4,0.8,2.5,1.9,3.2,3.3C124.3,17.9,124.6,19.5,124.6,21.3z M94.2,34.9c-3.1,0-5.6-0.9-7.5-2.6
		c-1.9-1.7-2.9-4.5-2.9-8.3c0-2.7,0.5-5,1.6-6.8c1.1-1.8,2.5-3.1,4.1-3.9c1.7-0.8,3.5-1.2,5.4-1.2c1.2,0,2.4,0.2,3.5,0.5
		c1.1,0.3,2.3,0.8,3.6,1.5l-1.9,3.7c-1.1-0.5-2-0.9-2.8-1.1c-0.8-0.2-1.6-0.3-2.4-0.3c-1.8,0-3.1,0.7-4.1,2c-1,1.3-1.5,3.2-1.5,5.7
		c0,4.4,1.9,6.6,5.6,6.6c1,0,1.9-0.2,2.8-0.5c0.9-0.3,1.8-0.8,2.8-1.4l1.9,3.6c-1.2,0.8-2.5,1.4-3.8,1.9
		C97.2,34.6,95.8,34.9,94.2,34.9z M65.5,28.4c0,0.8,0.2,1.4,0.7,1.8c0.5,0.4,1.2,0.6,2.1,0.6c1.8,0,3.7-0.6,5.6-1.7v-4.7
		c-2.6,0.1-4.7,0.5-6.1,1.2C66.3,26.3,65.5,27.2,65.5,28.4z M71.2,12c2.7,0,4.7,0.6,6,1.7c1.3,1.1,2,3,2,5.4v15.1h-4.6l-0.4-1.8
		c-1.2,0.9-2.4,1.5-3.7,1.9c-1.2,0.4-2.5,0.6-3.9,0.6c-1.3,0-2.4-0.2-3.4-0.7c-1-0.5-1.8-1.2-2.3-2.1c-0.6-0.9-0.8-1.9-0.8-3.1
		c0-1.8,0.6-3.2,1.9-4.4c1.2-1.2,2.9-2.1,5-2.7c2.1-0.6,4.4-0.9,7-1v-0.8c0-1.4-0.3-2.4-0.8-3c-0.5-0.6-1.4-0.9-2.7-0.9
		c-2.2,0-4.6,0.8-7.2,2.5L61,15.3c1.6-1.1,3.2-1.9,4.8-2.5C67.5,12.3,69.3,12,71.2,12z M59.6,7.3H44.8v9.4h12.8l-0.6,4.6H44.8v12.9
		h-5.5V2.7h20.3V7.3z"/>
	<path class="st1" d="M171.8,34.5v-23l2-0.4v8.2c0.6-0.2,1.3-0.4,2-0.6c0.7-0.1,1.3-0.2,2-0.2c1.2,0,2.2,0.2,3,0.5
		c0.8,0.3,1.4,0.8,1.9,1.5c0.5,0.6,0.8,1.4,1,2.3c0.2,0.9,0.3,1.9,0.3,2.9v8.7h-2v-8.1c0-1.1-0.1-2-0.2-2.8
		c-0.2-0.8-0.4-1.4-0.8-1.9c-0.4-0.5-0.8-0.8-1.4-1c-0.6-0.2-1.3-0.3-2.2-0.3c-0.3,0-0.7,0-1.1,0.1c-0.4,0.1-0.8,0.1-1.1,0.2
		c-0.3,0.1-0.6,0.1-0.9,0.2c-0.3,0.1-0.4,0.1-0.5,0.2v13.4H171.8z M166.1,34.8c-1.2,0-2.3-0.2-3.2-0.6c-0.9-0.4-1.7-0.9-2.3-1.6
		c-0.6-0.7-1.1-1.6-1.4-2.6c-0.3-1-0.5-2.1-0.5-3.3c0-1.2,0.2-2.3,0.5-3.3c0.3-1,0.8-1.9,1.4-2.6c0.6-0.7,1.4-1.3,2.3-1.7
		c0.9-0.4,1.9-0.6,3-0.6c0.8,0,1.6,0.1,2.4,0.2c0.7,0.1,1.3,0.3,1.7,0.5l-0.5,1.7c-0.4-0.2-0.9-0.4-1.4-0.5c-0.5-0.1-1.2-0.2-2-0.2
		c-1.7,0-3,0.6-3.9,1.7c-0.9,1.1-1.3,2.7-1.3,4.7c0,0.9,0.1,1.8,0.3,2.5c0.2,0.8,0.5,1.4,1,2c0.5,0.6,1,1,1.7,1.3
		c0.7,0.3,1.6,0.5,2.6,0.5c0.8,0,1.5-0.1,2.1-0.3c0.6-0.2,1-0.4,1.2-0.5l0.4,1.7c-0.4,0.2-0.9,0.4-1.7,0.6
		C167.8,34.7,167,34.8,166.1,34.8z M155,25.5c0-1.6-0.4-2.9-1.1-3.8c-0.7-0.9-1.7-1.4-3.1-1.4c-0.7,0-1.3,0.1-1.9,0.4
		c-0.6,0.3-1,0.7-1.4,1.1c-0.4,0.5-0.7,1-1,1.6c-0.2,0.6-0.4,1.3-0.4,2H155z M144,26.7c0-1.4,0.2-2.5,0.6-3.6c0.4-1,0.9-1.9,1.5-2.5
		c0.6-0.7,1.4-1.2,2.2-1.5c0.8-0.3,1.6-0.5,2.5-0.5c1.9,0,3.4,0.6,4.6,1.9c1.1,1.2,1.7,3.2,1.7,5.7c0,0.2,0,0.3,0,0.5
		c0,0.2,0,0.3,0,0.5h-10.9c0.1,1.9,0.5,3.4,1.4,4.4c0.9,1,2.3,1.5,4.2,1.5c1.1,0,1.9-0.1,2.5-0.3c0.6-0.2,1.1-0.4,1.4-0.5l0.4,1.7
		c-0.3,0.2-0.8,0.4-1.6,0.6c-0.8,0.2-1.7,0.3-2.7,0.3c-1.4,0-2.5-0.2-3.5-0.6c-1-0.4-1.8-1-2.4-1.7c-0.6-0.7-1.1-1.6-1.4-2.6
		C144.1,29,144,27.9,144,26.7z M136.9,18.9h6.2v1.7h-6.2v8.3c0,0.9,0.1,1.6,0.2,2.1c0.2,0.6,0.4,1,0.6,1.3c0.3,0.3,0.6,0.5,1,0.6
		c0.4,0.1,0.8,0.2,1.3,0.2c0.8,0,1.5-0.1,2-0.3c0.5-0.2,0.9-0.4,1.2-0.5l0.5,1.6c-0.3,0.2-0.8,0.4-1.5,0.6c-0.7,0.2-1.5,0.3-2.3,0.3
		c-1,0-1.8-0.1-2.4-0.4c-0.7-0.3-1.2-0.6-1.6-1.1c-0.4-0.5-0.7-1.1-0.8-1.9c-0.2-0.8-0.2-1.7-0.2-2.7V14.4l2-0.4V18.9z M132.1,33.2
		c0,0.5-0.1,0.9-0.4,1.2c-0.3,0.3-0.7,0.5-1.2,0.5c-0.5,0-0.9-0.2-1.2-0.5c-0.3-0.3-0.4-0.7-0.4-1.2c0-0.5,0.1-0.9,0.4-1.2
		c0.3-0.3,0.7-0.5,1.2-0.5c0.5,0,0.9,0.2,1.2,0.5C132,32.3,132.1,32.7,132.1,33.2z"/>
</g>
</svg>
